<?xml version="1.0" standalone="no"?>
<!DOCTYPE svg PUBLIC "-//W3C//DTD SVG 1.0//EN" "http://www.w3.org/TR/2001/REC-SVG-20010904/DTD/svg10.dtd">
<svg xmlns="http://www.w3.org/2000/svg" xmlns:xlink="http://www.w3.org/1999/xlink" id="body_1" width="40" height="41">

<g transform="matrix(0.078125015 0 0 0.078125015 -0 0.49999723)">
	<g transform="matrix(1 0 0 1 484.6082 680.5389)">
        <path d="M27.39183 -424.53885C 27.39183 -353.84644 2.3982754 -293.50665 -47.588837 -243.51952C -97.57594 -193.53241 -157.91573 -168.53885 -228.60817 -168.53885C -299.30063 -168.53885 -359.6404 -193.53241 -409.6275 -243.51952C -459.61462 -293.50665 -484.60815 -353.84644 -484.60815 -424.53885C -484.60815 -495.23132 -459.61462 -555.57104 -409.6275 -605.55817C -359.6404 -655.5453 -299.30063 -680.5388 -228.60817 -680.5388C -157.91573 -680.5388 -97.57594 -655.5453 -47.588837 -605.55817C 2.3982754 -555.57104 27.39183 -495.23132 27.39183 -424.53885C 27.39183 -421.55988 27.33985 -418.5818 27.235886 -415.60458" stroke="none" fill="#0994FF" fill-rule="nonzero" />
		<g transform="matrix(2.2704186 0 0 2.2704186 -1734.6074 -1344.4587)">
            <path d="M595.12976 390.4432C 639.4874 421.5603 680.9568 350.57507 731.50037 389.43304" stroke="#FFFFFF" stroke-width="17.758116" stroke-linecap="square" fill="#0994FF" fill-rule="nonzero" />
            <path d="M595.12976 424.78836C 639.4874 455.90546 680.9568 384.92023 731.50037 423.7782" stroke="#FFFFFF" stroke-width="17.758116" stroke-linecap="square" fill="#0994FF" fill-rule="nonzero" />
		</g>
	</g>
</g>
</svg>